<?xml version="1.0" encoding="UTF-8" standalone="no"?>
<svg
   xmlns:dc="http://purl.org/dc/elements/1.1/"
   xmlns:cc="http://creativecommons.org/ns#"
   xmlns:rdf="http://www.w3.org/1999/02/22-rdf-syntax-ns#"
   xmlns:svg="http://www.w3.org/2000/svg"
   xmlns="http://www.w3.org/2000/svg"
   viewBox="0 0 182.66667 245.33333"
   height="245.33333"
   width="182.66667"
   xml:space="preserve"
   id="svg2"
   version="1.1"><metadata
     id="metadata8"><rdf:RDF><cc:Work
         rdf:about=""><dc:format>image/svg+xml</dc:format><dc:type
           rdf:resource="http://purl.org/dc/dcmitype/StillImage" /></cc:Work></rdf:RDF></metadata><defs
     id="defs6" /><g
     transform="matrix(1.3333333,0,0,-1.3333333,0,245.33333)"
     id="g10"><g
       transform="scale(0.1)"
       id="g12"><path
         id="path14"
         style="fill:#5c6e7a;fill-opacity:1;fill-rule:evenodd;stroke:none"
         d="m 565.512,1243.52 c 2.648,-2.35 2.648,-2.19 0,0.46 0,0 0,-0.15 0,-0.46" /><path
         id="path16"
         style="fill:#5c6e7a;fill-opacity:1;fill-rule:evenodd;stroke:none"
         d="m 536.988,1183.98 c 0,0 0,-0.15 0,-0.46 2.66,-2.35 2.66,-2.19 0,0.46" /><path
         id="path18"
         style="fill:#5c6e7a;fill-opacity:1;fill-rule:evenodd;stroke:none"
         d="m 798.52,1070.51 c -2.348,2.34 -2.192,2.15 0.46,-0.51 0,0 -0.152,0.16 -0.46,0.51" /><path
         id="path20"
         style="fill:#f04f33;fill-opacity:1;fill-rule:evenodd;stroke:none"
         d="m 726.988,556.48 c -3.316,-2.652 -6.636,-5.152 -10,-7.5 L 791.02,475 820,503.98 746.988,576.988 c -13.008,-13.008 -19.648,-19.84 -20,-20.508" /><path
         id="path22"
         style="fill:#f04f33;fill-opacity:1;fill-rule:evenodd;stroke:none"
         d="m 580,991.988 -15.512,16.022 28.524,28.47 -18.012,17.5 h 0.512 c 0.308,5 1.988,26.84 5,65.51 3.008,38.36 4.648,63.01 5,74.03 -1.332,21.64 -8.012,38.47 -20,50.46 l -4.032,3.52 -28.98,28.98 v 0.51 l -15.512,-15.51 c -3.976,-3.98 -14.84,-14.8 -32.5,-32.5 -9.648,9.34 -27.648,27.19 -53.976,53.52 -26.332,26.68 -49.34,50 -69.032,70 -13.32,13.32 -20.308,20.35 -20.968,21.02 -2.66,2.65 -5.512,5 -8.524,6.99 -24.328,13.98 -47.34,11.64 -68.976,-6.99 L 81.4805,1191.99 c -18.6289,-21.64 -20.9688,-44.65 -6.9922,-68.98 1.9922,-3.01 4.3398,-5.86 6.9922,-8.52 0.6679,-0.66 7.6992,-7.65 21.0195,-20.97 16.68,-16.37 36.84,-36.37 60.512,-60 23.976,-23.68 45.308,-44.692 63.976,-63.008 C 244.648,952.852 253.98,943.52 255,942.5 l 1.02,-0.512 L 388.012,878.52 460,806.48 c 1.988,3.36 4.488,6.532 7.5,9.54 0.66,0.66 7.5,7.3 20.512,20 L 401.988,921.988 366.48,937.5 c -16.32,8.012 -34.14,16.68 -53.468,26.02 -19.692,9.64 -30.512,14.8 -32.5,15.46 L 112.5,1145.51 c -4.34,5 -4.34,10.15 0,15.51 l 21.48,20.97 72.5,-72.5 27.5,26.99 -72.96,73.01 28.98,29.03 73.012,-73.01 26.988,27.5 -72.5,72.5 28.98,29.49 73.008,-73.01 26.992,26.99 -72.96,73.01 20.46,20.51 c 5.36,4.34 10.508,4.34 15.508,0 2.352,-2.34 17.5,-17.5 45.512,-45.51 28.32,-28.32 56.48,-56.48 84.488,-84.49 28.012,-28.01 43.012,-43.16 45,-45.51 1.332,1.02 7.66,7.19 19.032,18.52 11.32,11.33 20.968,20.97 28.98,28.98 l 1.988,-1.99 c 0,0 0,0.16 0,0.51 2.66,-2.66 2.66,-2.85 0,-0.51 4.032,-4.34 6.332,-11.48 6.992,-21.48 -0.308,-9.69 -2.3,-35.51 -5.968,-77.5 -3.672,-42.04 -5.864,-65.86 -6.532,-71.53 l 83.008,-82.502 c 0,0 0.16,0.16 0.512,0.512 -18.012,17.66 -28.828,28.32 -32.5,31.988" /><path
         id="path24"
         style="fill:#f04f33;fill-opacity:1;fill-rule:evenodd;stroke:none"
         d="M 898.52,730.512 C 897.5,729.488 888.012,719.84 870,701.48 l 73.98,-73.98 28.52,28.98 -73.98,74.032" /><path
         id="path26"
         style="fill:#f04f33;fill-opacity:1;fill-rule:evenodd;stroke:none"
         d="m 466.02,1583.52 c 0.968,0.97 10.46,10.66 28.468,28.98 l -75,75 -28.976,-28.98 75.508,-75" /><path
         id="path28"
         style="fill:#f04f33;fill-opacity:1;fill-rule:evenodd;stroke:none"
         d="m 543.012,1811.02 74.488,-74.03 c 12.66,12.66 19.34,19.34 20,20 3.012,3.01 6.172,5.51 9.488,7.5 l -75,75.51 -28.976,-28.98" /><path
         id="path30"
         style="fill:#f04f33;fill-opacity:1;fill-rule:evenodd;stroke:none"
         d="m 1290,1190.51 c -1.99,3.32 -4.34,6.33 -6.99,8.98 -0.67,0.67 -7.66,7.5 -21.02,20.51 -16.64,16.68 -36.99,36.84 -60.97,60.51 -23.68,23.67 -44.85,44.49 -63.52,62.5 -17.66,17.65 -26.99,26.99 -28.01,28.01 l -0.97,0.46 -132.04,64.03 -71.992,71.99 c -2.34,-3.32 -4.84,-6.48 -7.5,-9.49 -0.66,-0.67 -7.5,-7.5 -20.508,-20.51 l 85.508,-85.51 36.024,-15.97 c 16.328,-7.7 34.138,-16.37 53.468,-26.02 19.69,-9.34 30.36,-14.49 32.04,-15.51 l 168.47,-165.97 c 4.03,-5.36 4.03,-10.51 0,-15.51 l -21.48,-21.53 -73.01,73.01 -26.99,-26.99 73.01,-73.01 -29.54,-28.98 -72.5,72.5 -27.5,-26.99 73.01,-73.01 -28.98,-29.03 -73.01,73.01 -26.99,-27.5 72.5,-72.502 -20,-20.508 c -5.35,-4.332 -10.51,-4.332 -15.51,0 -2.34,2.348 -17.5,17.5 -45.51,45.51 -28.318,28.01 -56.478,56.17 -84.49,84.49 -28.012,28.01 -43.16,43.17 -45.512,45.51 -0.968,-1.33 -7.148,-7.65 -18.468,-18.98 -11.372,-11.33 -21.02,-21.02 -29.032,-29.03 -0.968,1.02 -1.636,1.84 -1.988,2.5 0,-0.31 0,-0.46 0,-0.46 -2.66,2.65 -2.66,2.81 0,0.46 -4.34,4.03 -6.68,11.02 -6.988,21.02 0.308,10 2.34,35.82 5.968,77.5 3.68,41.99 5.668,65.82 6.02,71.48 l -82.5,83.01 c -0.352,-0.31 -0.512,-0.51 -0.512,-0.51 17.66,-17.65 28.524,-28.47 32.5,-32.5 l 15.512,-15.46 -28.52,-28.52 18.008,-17.5 -0.508,-0.51 c -0.308,-5 -1.992,-26.64 -5,-65 -3.32,-38.67 -5,-63.47 -5,-74.49 1.372,-21.33 8.008,-38.01 20,-50 l 4.032,-3.98 28.976,-28.52 v -0.51 l 15.512,15.51 c 3.98,3.98 14.84,14.84 32.5,32.5 9.648,-9.34 27.66,-27.34 53.98,-53.98 26.02,-26.37 49.032,-49.54 69.03,-69.54 13.32,-13.628 20.31,-20.82 20.97,-21.48 2.7,-2.66 5.51,-5 8.52,-6.988 24.34,-13.672 47.34,-11.172 68.98,7.5 l 181.53,181.478 c 18.67,21.68 20.97,44.49 6.99,68.52" /><path
         id="path32"
         style="fill:#0078ae;fill-opacity:1;fill-rule:evenodd;stroke:none"
         d="M 226.988,970.512 152.5,896.02 l 28.98,-29.032 75,75 -1.48,0.512 c -0.66,1.02 -10,10.352 -28.012,28.012" /><path
         id="path34"
         style="fill:#0078ae;fill-opacity:1;fill-rule:evenodd;stroke:none"
         d="M 74.4883,1123.01 0,1048.52 28.9805,1019.49 102.5,1093.52 c -13.3203,12.96 -20.3516,19.8 -21.0195,20.46 -2.6524,3.01 -5,6.02 -6.9922,9.03" /><path
         id="path36"
         style="fill:#0078ae;fill-opacity:1;fill-rule:evenodd;stroke:none"
         d="M 1003.52,961.02 919.488,877.5 903.98,841.48 C 896.02,825.16 887.34,807.34 878.012,788.012 868.32,768.32 863.16,757.66 862.5,756.02 L 696.02,587.5 c -5,-3.98 -10.2,-3.98 -15.508,0 l -21.024,21.48 72.5,73.008 -26.988,26.992 -73.012,-72.96 -28.976,29.492 73.008,72.5 -27.5,27.5 -72.5,-73.012 -29.54,28.98 73.008,73.008 -26.988,26.992 -73.012,-72.5 -20.508,20 c -4.332,5.36 -4.332,10.508 0,15.508 2.348,2.352 17.5,17.5 45.508,45.512 28.364,28.32 56.532,56.48 84.492,84.488 28.008,28.012 43.168,43.172 45.508,45.512 -0.968,1.02 -7.148,7.148 -18.468,18.52 -11.372,11.32 -21.02,20.968 -29.032,28.98 l 1.992,1.99 c 0,0 -0.152,0 -0.46,0 2.652,2.66 2.808,2.66 0.46,0 4.34,4.34 11.532,6.68 21.532,6.99 9.648,-0.31 35.508,-2.3 77.5,-5.97 41.988,-3.67 65.816,-5.67 71.476,-6.02 l 32.5,32.5 -28.976,29.03 L 787.5,1050 v 0.51 c -5.352,0.31 -27.148,1.99 -65.512,5 -38.316,3.32 -63.16,5 -74.488,5 -21.02,-1.33 -37.66,-8.01 -50,-20 L 564.488,1007.5 580,991.988 c 3.98,-3.976 14.84,-14.84 32.5,-32.5 0,0 0,-0.148 0,-0.508 -10,-10 -28.16,-28.16 -54.488,-54.492 C 531.328,878.52 508.16,855.66 488.52,836.02 475.512,823.012 468.672,816.172 468.012,815.512 465,812.5 462.5,809.34 460.512,806.02 c -13.364,-24.032 -10.864,-46.68 7.5,-68.008 L 649.488,556.48 c 21.332,-18.32 44.032,-20.82 68.012,-7.5 3.32,2.04 6.48,4.54 9.488,7.5 0.672,0.668 7.352,7.5 20,20.508 16.332,16.332 36.332,36.532 60,60.512 23.672,23.672 44.692,44.84 63.012,63.52 18.32,18.32 28.012,27.96 28.98,28.98 v 0.512 l 64.032,132.5 69.998,70 c -3.01,1.988 -6.02,4.328 -9.03,6.988 -0.31,0.66 -7.14,7.66 -20.46,21.02" /><path
         id="path38"
         style="fill:#0078ae;fill-opacity:1;fill-rule:evenodd;stroke:none"
         d="m 1337.5,1296.02 -75.51,-75.51 c 13.36,-13.36 20.35,-20.35 21.02,-21.02 2.65,-2.65 5,-5.66 6.99,-8.98 l 76.48,76.48 -28.98,29.03" /><path
         id="path40"
         style="fill:#0078ae;fill-opacity:1;fill-rule:evenodd;stroke:none"
         d="m 1108.52,1371.48 0.97,-0.46 c 1.02,-0.67 10.51,-10 28.52,-28.01 l 75.97,76.48 -28.47,29.03 -76.99,-77.04" /><path
         id="path42"
         style="fill:#0078ae;fill-opacity:1;fill-rule:evenodd;stroke:none"
         d="m 502.5,1558.01 166.48,168.01 c 5,4.33 10.2,4.33 15.508,0 l 21.024,-21.53 -72.5,-72.5 26.988,-27.5 73.012,73.01 28.976,-28.98 -73.008,-73.01 27.5,-26.99 72.5,72.5 29.54,-29.03 -73.008,-73.01 26.988,-26.99 73.012,73.01 20.508,-20.51 c 4.332,-5.31 4.332,-10.51 0,-15.51 -2.348,-2.3 -17.5,-17.5 -45.508,-45.46 -28.364,-28.01 -56.532,-56.18 -84.492,-84.54 -28.008,-27.96 -43.168,-42.96 -45.508,-45 0.968,-1.32 7.148,-7.65 18.468,-18.98 11.372,-11.33 21.02,-21.02 29.032,-28.98 -0.672,-0.67 -1.332,-1.37 -1.992,-2.04 0,0 0.152,0 0.46,0 -2.652,-2.3 -2.808,-2.3 -0.46,0 -4.34,-3.98 -11.532,-6.32 -21.532,-6.99 -9.648,0.35 -35.508,2.35 -77.5,6.02 -41.988,3.67 -65.816,5.82 -71.476,6.48 l -23.012,-23.01 -9.488,-10 28.976,-28.98 14.492,15 1.02,1.02 c 5.352,-0.67 27.148,-2.5 65.512,-5.51 38.316,-3.01 63.008,-4.69 73.976,-5 21.684,1.33 38.524,8.01 50.512,20 l 33.012,33.01 -15.512,15.46 c -3.98,4.03 -14.84,14.85 -32.5,32.5 0,0.36 0,0.51 0,0.51 10,10 28.16,28.17 54.488,54.49 26.684,26.37 49.852,49.34 69.492,69.03 13.36,12.65 20.2,19.33 20.508,20 3.012,3.01 5.512,6.17 7.5,9.49 13.364,23.98 10.864,46.68 -7.5,68.01 l -181.476,181.48 c -21.332,18.36 -44.032,20.86 -68.012,7.5 -3.32,-1.99 -6.48,-4.49 -9.488,-7.5 -0.672,-0.66 -7.352,-7.5 -20,-20.51 -16.332,-16.32 -36.332,-36.48 -60,-60.46 -23.672,-23.68 -44.692,-44.85 -63.012,-63.52 -18.32,-18.32 -28.012,-28.01 -28.98,-28.98 l -64.032,-133.01 -20.968,-21.02 -49.032,-48.98 c 3.012,-1.99 6.024,-4.34 9.032,-6.99 0.308,-0.67 7.14,-7.7 20.46,-21.02 l 68.52,68.52 15.512,15.46 15.508,35.51 c 7.96,16.33 16.64,34.34 25.968,54.03 9.692,19.33 14.852,30 15.512,31.99" /><path
         id="path44"
         style="fill:#0078ae;fill-opacity:1;fill-rule:nonzero;stroke:none"
         d="M 524.102,322.379 H 430.66 V 5.51172 H 385.98 V 322.379 H 292.699 V 360.98 H 524.102 Z M 809.219,5.51172 h -44.84 L 622.031,279.41 V 5.51172 h -45 V 360.98 h 45 L 764.84,85.8203 V 360.98 h 44.379 z" /><path
         id="path46"
         style="fill:#0078ae;fill-opacity:1;fill-rule:nonzero;stroke:none"
         d="m 1109.1,49.7305 -7.81,-9.8516 C 1078.79,13.7109 1045.9,0.660156 1002.7,0.660156 964.262,0.660156 934.02,13.3594 912.07,38.7891 890.199,64.3008 879.02,100.352 878.629,146.91 v 69.852 c 0,49.758 9.922,87.066 29.851,111.867 20,24.769 49.84,37.191 89.532,37.191 33.828,0 60.308,-9.449 79.368,-28.281 19.14,-18.867 29.73,-45.777 31.72,-80.777 h -44.69 c -1.79,22.066 -7.93,39.289 -18.43,51.718 -10.55,12.5 -26.49,18.75 -47.82,18.75 -25.539,0 -44.211,-8.359 -56.09,-25 -11.871,-16.679 -18.09,-43.281 -18.59,-79.851 V 149.73 c 0,-35.75 6.79,-63.2105 20.469,-82.3511 13.75,-19.0586 33.352,-28.5898 58.901,-28.5898 24.06,0 42.38,5.8203 55,17.5 l 6.56,6.0898 V 144.41 h -65 v 38.129 h 109.69 z" /></g></g></svg>